<svg xmlns="http://www.w3.org/2000/svg" width="16" height="16" fill="currentColor" class="bi bi-check-circle" viewBox="0 0 16 16"  xmlns:xlink="http://www.w3.org/1999/xlink" preserveAspectRatio="xMinYMin meet"><rect id="svgEditorBackground" x="0" y="0" width="16" height="16" style="fill:none;stroke:none"/>
  <path d="M8,15A7,7,0,1,1,8,1a7,7,0,0,1,0,14Zm0,1A8,8,0,1,0,8,0a8,8,0,0,0,0,16Z" style="stroke:#9DC8E8;"/>
  <path d="M10.97,4.97a.235,.235,0,0,0,-.02,.022L7.477,9.417L5.384,7.323a.75,.75,0,0,0,-1.06,1.06L6.97,11.03a.75,.75,0,0,0,1.079,-.02l3.992,-4.99a.75,.75,0,0,0,-1.071,-1.05Z" style="fill:#9DC8E9;"/>
</svg>